<svg width="147" height="147" viewBox="0 0 147 147" fill="none" xmlns="http://www.w3.org/2000/svg">
<g filter="url(#filter0_d_2_207)">
<mask id="mask0_2_207" style="mask-type:alpha" maskUnits="userSpaceOnUse" x="0" y="0" width="147" height="147">
<rect x="3.0835" y="3.23724" width="141.258" height="141.258" fill="#D9D9D9" stroke="black" stroke-width="5"/>
</mask>
<g mask="url(#mask0_2_207)">
<path d="M82.398 92.9744L82.3982 92.9743C83.4143 91.8589 83.8657 90.403 83.4684 88.8616L80.4468 71.4191C82.133 70.3874 83.5468 69.0524 84.6553 67.4123C86.131 65.2314 86.8772 62.7909 86.8772 60.1545C86.8772 56.5519 85.5637 53.4063 83.0067 50.8531C80.4501 48.3003 77.3024 46.9898 73.6989 46.9898C70.095 46.9898 66.9497 48.3006 64.4008 50.857C61.8542 53.4111 60.5479 56.5555 60.5479 60.1545C60.5479 62.7909 61.2941 65.2314 62.7698 67.4123C63.8783 69.0524 65.2922 70.3874 66.9783 71.4191L63.9568 88.8616C63.5594 90.4032 64.0117 91.8584 65.027 92.9726C65.9539 93.9919 67.2016 94.6484 68.685 94.6484H78.7402C80.2233 94.6484 81.4706 93.9923 82.398 92.9744ZM71.8221 131.299L71.7221 131.255L71.6187 131.22C58.0211 126.622 47.2997 118.409 39.3806 106.53C31.4255 94.5974 27.46 81.5399 27.46 67.2983V37.454C27.46 36.0026 27.8592 34.7487 28.6594 33.6161L28.6604 33.6146C29.4851 32.4454 30.5212 31.6227 31.8067 31.1006L71.3769 16.338C72.2621 16.0171 73.0356 15.8824 73.7126 15.8824C74.3895 15.8824 75.163 16.0171 76.0483 16.338C76.0514 16.3391 76.0545 16.3402 76.0576 16.3413L115.618 31.1006C116.904 31.6227 117.941 32.4456 118.767 33.6152C119.566 34.7478 119.965 36.0021 119.965 37.454V67.2983C119.965 81.5399 116 94.5974 108.045 106.53C100.125 118.409 89.404 126.622 75.8065 131.22L75.7031 131.255L75.6031 131.299C75.2808 131.44 74.9743 131.539 74.6823 131.603C74.4174 131.661 74.0973 131.697 73.7126 131.697C73.3278 131.697 73.0077 131.661 72.7429 131.603C72.4508 131.539 72.1443 131.44 71.8221 131.299Z" fill="#B3CBED" stroke="#4E5D70" stroke-width="5"/>
</g>
</g>
<defs>
<filter id="filter0_d_2_207" x="20.96" y="13.3824" width="105.505" height="128.815" filterUnits="userSpaceOnUse" color-interpolation-filters="sRGB">
<feFlood flood-opacity="0" result="BackgroundImageFix"/>
<feColorMatrix in="SourceAlpha" type="matrix" values="0 0 0 0 0 0 0 0 0 0 0 0 0 0 0 0 0 0 127 0" result="hardAlpha"/>
<feOffset dy="4"/>
<feGaussianBlur stdDeviation="2"/>
<feComposite in2="hardAlpha" operator="out"/>
<feColorMatrix type="matrix" values="0 0 0 0 0 0 0 0 0 0 0 0 0 0 0 0 0 0 0.25 0"/>
<feBlend mode="normal" in2="BackgroundImageFix" result="effect1_dropShadow_2_207"/>
<feBlend mode="normal" in="SourceGraphic" in2="effect1_dropShadow_2_207" result="shape"/>
</filter>
</defs>
</svg>
